<svg width="84" height="32" viewBox="0 0 84 32" fill="none" xmlns="http://www.w3.org/2000/svg">
  <path d="M20.8 6.4C18.4 6.4 16.48 8.32 16.48 10.72V21.28C16.48 23.68 18.4 25.6 20.8 25.6C23.2 25.6 25.12 23.68 25.12 21.28V10.72C25.12 8.32 23.2 6.4 20.8 6.4ZM63.2 6.4C60.8 6.4 58.88 8.32 58.88 10.72V21.28C58.88 23.68 60.8 25.6 63.2 25.6C65.6 25.6 67.52 23.68 67.52 21.28V10.72C67.52 8.32 65.6 6.4 63.2 6.4Z" stroke="white" stroke-width="3.2" stroke-linecap="round" stroke-linejoin="round"/>
  <path d="M38.4 6.4C36 6.4 34.08 8.32 34.08 10.72V21.28C34.08 23.68 36 25.6 38.4 25.6C40.8 25.6 42.72 23.68 42.72 21.28V10.72C42.72 8.32 40.8 6.4 38.4 6.4ZM45.28 10.72C45.28 8.32 47.2 6.4 49.6 6.4C52 6.4 53.92 8.32 53.92 10.72V25.6" stroke="white" stroke-width="3.2" stroke-linecap="round" stroke-linejoin="round"/>
</svg>

