<svg width="90" height="32" viewBox="0 0 90 32" xmlns="http://www.w3.org/2000/svg">
  <defs>
    <linearGradient id="rennerGradient" x1="0" y1="0" x2="1" y2="0">
      <stop offset="0%" stop-color="#A0001E"/>
      <stop offset="100%" stop-color="#FF5A6A"/>
    </linearGradient>
  </defs>
  <rect x="4" y="4" width="82" height="24" rx="12" fill="url(#rennerGradient)"/>
  <path d="M22 10c-4 0-7 3-7 7s3 7 7 7 7-3 7-7-3-7-7-7zm0 2c1.9 0 3.5 1 4.4 2.6h-4.9c-.8 0-1.5.7-1.5 1.5V18c0 .8.7 1.5 1.5 1.5h4.9C25.5 20 23.9 21 22 21c-2.8 0-5-2.2-5-5s2.2-4 5-4zM38 11c-1.7 0-3 .8-3.6 2h-1.4v-2h-2v12h2v-6h1.5c.7 1.2 1.9 2 3.5 2 2.2 0 4-1.8 4-4s-1.8-4-4-4zm0 2c1.1 0 2 .9 2 2s-.9 2-2 2-2-.9-2-2 .9-2 2-2zm10 0c-2.2 0-4 1.8-4 4s1.8 4 4 4c1.6 0 2.8-.8 3.5-2H52v-2h-.5c-.6-1.2-1.9-2-3.5-2zm0 2c1.1 0 2 .9 2 2s-.9 2-2 2-2-.9-2-2 .9-2 2-2zm9-2c-2.2 0-4 1.8-4 4s1.8 4 4 4c1.6 0 2.8-.8 3.5-2H61v-2h-.5c-.6-1.2-1.9-2-3.5-2zm0 2c1.1 0 2 .9 2 2s-.9 2-2 2-2-.9-2-2 .9-2 2-2zm11-2c-2.2 0-4 1.8-4 4s1.8 4 4 4 4-1.8 4-4-1.8-4-4-4zm0 2c1.1 0 2 .9 2 2s-.9 2-2 2-2-.9-2-2 .9-2 2-2z" fill="#fff"/>
</svg>

