<svg width="96" height="40" viewBox="0 0 96 40" fill="none" xmlns="http://www.w3.org/2000/svg">
  <path d="M15.5 28L21.2 12H28.3L22.6 28H15.5ZM30.8 12H37.2L41.5 21.8L46 12H52.3L44.4 28H38.7L34.5 18.9L30.8 28H24.6L30.8 12ZM55.4 28V12H61.2V28H55.4ZM74.8 17.1C74.1 16.7 72.7 16.2 71.2 16.2C69 16.2 67.8 17.1 67.8 18.4C67.8 19.6 69 20.2 71.2 21L72.5 21.5C76.4 23 78.1 24.9 78.1 27.6C78.1 31.3 75 33.5 70.5 33.5C67.8 33.5 65.2 32.9 63.1 31.8L64.4 27.5C65.8 28.3 68.2 29.1 70.6 29.1C72.9 29.1 74.1 28.3 74.1 27C74.1 25.8 73.1 25 70.7 24.1L69.3 23.6C65.8 22.3 64 20.4 64 17.8C64 14.5 66.7 12.3 71 12.3C73.3 12.3 75.6 12.9 77.1 13.6L75.7 17.1H74.8Z" fill="white"/>
</svg>

